<svg xmlns="http://www.w3.org/2000/svg" xmlns:xlink="http://www.w3.org/1999/xlink" width="82" zoomAndPan="magnify" viewBox="0 0 61.5 17.999999" height="24" preserveAspectRatio="xMidYMid meet" version="1.0"><defs><g/><clipPath id="09082aaf8f"><path d="M 0 0.0742188 L 61.003906 0.0742188 L 61.003906 17.925781 L 0 17.925781 Z M 0 0.0742188 " clip-rule="nonzero"/></clipPath><clipPath id="dbfad3fd1a"><path d="M 0 1.964844 L 60.433594 1.964844 L 60.433594 15.691406 L 0 15.691406 Z M 0 1.964844 " clip-rule="nonzero"/></clipPath><clipPath id="35528d37cc"><path d="M 3.71875 1.964844 L 56.671875 1.964844 C 57.660156 1.964844 58.605469 2.355469 59.304688 3.054688 C 60 3.75 60.394531 4.695312 60.394531 5.683594 L 60.394531 11.972656 C 60.394531 12.957031 60 13.90625 59.304688 14.601562 C 58.605469 15.300781 57.660156 15.691406 56.671875 15.691406 L 3.71875 15.691406 C 2.734375 15.691406 1.785156 15.300781 1.089844 14.601562 C 0.390625 13.90625 0 12.957031 0 11.972656 L 0 5.683594 C 0 4.695312 0.390625 3.75 1.089844 3.054688 C 1.785156 2.355469 2.734375 1.964844 3.71875 1.964844 Z M 3.71875 1.964844 " clip-rule="nonzero"/></clipPath><clipPath id="aac60a95cf"><path d="M 0 0.964844 L 60.433594 0.964844 L 60.433594 14.691406 L 0 14.691406 Z M 0 0.964844 " clip-rule="nonzero"/></clipPath><clipPath id="31472da07e"><path d="M 3.71875 0.964844 L 56.671875 0.964844 C 57.660156 0.964844 58.605469 1.355469 59.304688 2.054688 C 60 2.75 60.394531 3.695312 60.394531 4.683594 L 60.394531 10.972656 C 60.394531 11.957031 60 12.90625 59.304688 13.601562 C 58.605469 14.300781 57.660156 14.691406 56.671875 14.691406 L 3.71875 14.691406 C 2.734375 14.691406 1.785156 14.300781 1.089844 13.601562 C 0.390625 12.90625 0 11.957031 0 10.972656 L 0 4.683594 C 0 3.695312 0.390625 2.75 1.089844 2.054688 C 1.785156 1.355469 2.734375 0.964844 3.71875 0.964844 Z M 3.71875 0.964844 " clip-rule="nonzero"/></clipPath><clipPath id="0af08f5f0b"><rect x="0" width="61" y="0" height="15"/></clipPath><clipPath id="dd98001113"><rect x="0" width="54" y="0" height="13"/></clipPath></defs><g clip-path="url(#09082aaf8f)"><path fill="#ffffff" d="M 0 0.0742188 L 61.003906 0.0742188 L 61.003906 17.925781 L 0 17.925781 Z M 0 0.0742188 " fill-opacity="1" fill-rule="nonzero"/></g><g clip-path="url(#dbfad3fd1a)"><g clip-path="url(#35528d37cc)"><g transform="matrix(1, 0, 0, 1, 0, 1)"><g clip-path="url(#0af08f5f0b)"><g clip-path="url(#aac60a95cf)"><g clip-path="url(#31472da07e)"><path fill="#ffffff" d="M 0 0.964844 L 60.378906 0.964844 L 60.378906 14.691406 L 0 14.691406 Z M 0 0.964844 " fill-opacity="1" fill-rule="nonzero"/></g></g></g></g></g></g><g transform="matrix(1, 0, 0, 1, 3, 2)"><g clip-path="url(#dd98001113)"><g fill="#000000" fill-opacity="1"><g transform="translate(0.826566, 10.099058)"><g><path d="M 2.765625 0.109375 C 2.296875 0.109375 1.890625 0 1.546875 -0.21875 C 1.203125 -0.445312 0.9375 -0.757812 0.75 -1.15625 C 0.5625 -1.550781 0.46875 -2.003906 0.46875 -2.515625 C 0.46875 -3.023438 0.5625 -3.476562 0.75 -3.875 C 0.945312 -4.269531 1.21875 -4.578125 1.5625 -4.796875 C 1.90625 -5.023438 2.304688 -5.140625 2.765625 -5.140625 C 3.117188 -5.140625 3.4375 -5.070312 3.71875 -4.9375 C 4.007812 -4.800781 4.242188 -4.613281 4.421875 -4.375 C 4.609375 -4.144531 4.722656 -3.867188 4.765625 -3.546875 L 3.984375 -3.546875 C 3.929688 -3.785156 3.800781 -3.992188 3.59375 -4.171875 C 3.382812 -4.347656 3.109375 -4.4375 2.765625 -4.4375 C 2.316406 -4.4375 1.953125 -4.257812 1.671875 -3.90625 C 1.390625 -3.5625 1.25 -3.101562 1.25 -2.53125 C 1.25 -1.945312 1.382812 -1.476562 1.65625 -1.125 C 1.9375 -0.769531 2.304688 -0.59375 2.765625 -0.59375 C 3.078125 -0.59375 3.335938 -0.671875 3.546875 -0.828125 C 3.765625 -0.984375 3.910156 -1.203125 3.984375 -1.484375 L 4.765625 -1.484375 C 4.722656 -1.179688 4.613281 -0.910156 4.4375 -0.671875 C 4.269531 -0.429688 4.039062 -0.238281 3.75 -0.09375 C 3.46875 0.0390625 3.140625 0.109375 2.765625 0.109375 Z M 2.765625 0.109375 "/></g></g></g><g fill="#000000" fill-opacity="1"><g transform="translate(6.015835, 10.099058)"><g><path d="M 3.90625 -2.078125 L 3.90625 -5.078125 L 4.6875 -5.078125 L 4.6875 0 L 3.90625 0 L 3.90625 -0.859375 L 3.859375 -0.859375 C 3.734375 -0.597656 3.546875 -0.378906 3.296875 -0.203125 C 3.046875 -0.0234375 2.726562 0.0625 2.34375 0.0625 C 1.875 0.0625 1.484375 -0.09375 1.171875 -0.40625 C 0.867188 -0.71875 0.71875 -1.195312 0.71875 -1.84375 L 0.71875 -5.078125 L 1.5 -5.078125 L 1.5 -1.90625 C 1.5 -1.53125 1.597656 -1.234375 1.796875 -1.015625 C 2.003906 -0.796875 2.269531 -0.6875 2.59375 -0.6875 C 2.789062 -0.6875 2.988281 -0.734375 3.1875 -0.828125 C 3.394531 -0.929688 3.566406 -1.082031 3.703125 -1.28125 C 3.835938 -1.488281 3.90625 -1.753906 3.90625 -2.078125 Z M 3.90625 -2.078125 "/></g></g></g><g fill="#000000" fill-opacity="1"><g transform="translate(11.416373, 10.099058)"><g><path d="M 0.8125 0 L 0.8125 -6.765625 L 1.59375 -6.765625 L 1.59375 -4.265625 L 1.65625 -4.265625 C 1.71875 -4.347656 1.800781 -4.457031 1.90625 -4.59375 C 2.007812 -4.738281 2.15625 -4.863281 2.34375 -4.96875 C 2.539062 -5.082031 2.800781 -5.140625 3.125 -5.140625 C 3.550781 -5.140625 3.925781 -5.03125 4.25 -4.8125 C 4.582031 -4.601562 4.835938 -4.300781 5.015625 -3.90625 C 5.203125 -3.519531 5.296875 -3.054688 5.296875 -2.515625 C 5.296875 -1.984375 5.203125 -1.519531 5.015625 -1.125 C 4.835938 -0.726562 4.585938 -0.421875 4.265625 -0.203125 C 3.941406 0.00390625 3.566406 0.109375 3.140625 0.109375 C 2.816406 0.109375 2.554688 0.0546875 2.359375 -0.046875 C 2.160156 -0.160156 2.007812 -0.285156 1.90625 -0.421875 C 1.800781 -0.566406 1.71875 -0.6875 1.65625 -0.78125 L 1.578125 -0.78125 L 1.578125 0 Z M 1.578125 -2.53125 C 1.578125 -1.957031 1.703125 -1.488281 1.953125 -1.125 C 2.203125 -0.769531 2.5625 -0.59375 3.03125 -0.59375 C 3.363281 -0.59375 3.640625 -0.675781 3.859375 -0.84375 C 4.078125 -1.019531 4.238281 -1.253906 4.34375 -1.546875 C 4.457031 -1.847656 4.515625 -2.175781 4.515625 -2.53125 C 4.515625 -2.882812 4.457031 -3.207031 4.34375 -3.5 C 4.238281 -3.789062 4.078125 -4.019531 3.859375 -4.1875 C 3.640625 -4.351562 3.363281 -4.4375 3.03125 -4.4375 C 2.5625 -4.4375 2.203125 -4.257812 1.953125 -3.90625 C 1.703125 -3.5625 1.578125 -3.101562 1.578125 -2.53125 Z M 1.578125 -2.53125 "/></g></g></g><g fill="#000000" fill-opacity="1"><g transform="translate(17.186633, 10.099058)"><g><path d="M 2.84375 0.109375 C 2.351562 0.109375 1.929688 0 1.578125 -0.21875 C 1.222656 -0.4375 0.945312 -0.738281 0.75 -1.125 C 0.5625 -1.519531 0.46875 -1.976562 0.46875 -2.5 C 0.46875 -3.019531 0.5625 -3.476562 0.75 -3.875 C 0.945312 -4.269531 1.21875 -4.578125 1.5625 -4.796875 C 1.90625 -5.023438 2.304688 -5.140625 2.765625 -5.140625 C 3.023438 -5.140625 3.28125 -5.09375 3.53125 -5 C 3.789062 -4.914062 4.023438 -4.773438 4.234375 -4.578125 C 4.453125 -4.378906 4.625 -4.117188 4.75 -3.796875 C 4.875 -3.472656 4.9375 -3.070312 4.9375 -2.59375 L 4.9375 -2.265625 L 1.265625 -2.265625 C 1.273438 -1.722656 1.425781 -1.304688 1.71875 -1.015625 C 2.007812 -0.734375 2.382812 -0.59375 2.84375 -0.59375 C 3.144531 -0.59375 3.40625 -0.65625 3.625 -0.78125 C 3.84375 -0.914062 4.003906 -1.117188 4.109375 -1.390625 L 4.859375 -1.171875 C 4.742188 -0.785156 4.503906 -0.472656 4.140625 -0.234375 C 3.785156 -0.00390625 3.351562 0.109375 2.84375 0.109375 Z M 1.265625 -2.9375 L 4.140625 -2.9375 C 4.140625 -3.375 4.015625 -3.734375 3.765625 -4.015625 C 3.515625 -4.296875 3.179688 -4.4375 2.765625 -4.4375 C 2.460938 -4.4375 2.203125 -4.363281 1.984375 -4.21875 C 1.765625 -4.082031 1.59375 -3.898438 1.46875 -3.671875 C 1.34375 -3.453125 1.273438 -3.207031 1.265625 -2.9375 Z M 1.265625 -2.9375 "/></g></g></g><g fill="#000000" fill-opacity="1"><g transform="translate(22.600375, 10.099058)"><g><path d="M 4.3125 -3.9375 L 3.609375 -3.734375 C 3.535156 -3.910156 3.414062 -4.078125 3.25 -4.234375 C 3.09375 -4.390625 2.847656 -4.46875 2.515625 -4.46875 C 2.203125 -4.46875 1.941406 -4.394531 1.734375 -4.25 C 1.523438 -4.101562 1.421875 -3.921875 1.421875 -3.703125 C 1.421875 -3.515625 1.488281 -3.363281 1.625 -3.25 C 1.769531 -3.132812 1.992188 -3.039062 2.296875 -2.96875 L 3.046875 -2.78125 C 3.941406 -2.5625 4.390625 -2.101562 4.390625 -1.40625 C 4.390625 -1.125 4.304688 -0.867188 4.140625 -0.640625 C 3.984375 -0.410156 3.753906 -0.226562 3.453125 -0.09375 C 3.148438 0.0390625 2.804688 0.109375 2.421875 0.109375 C 1.898438 0.109375 1.46875 0 1.125 -0.21875 C 0.789062 -0.445312 0.578125 -0.78125 0.484375 -1.21875 L 1.234375 -1.40625 C 1.367188 -0.851562 1.757812 -0.578125 2.40625 -0.578125 C 2.769531 -0.578125 3.054688 -0.65625 3.265625 -0.8125 C 3.484375 -0.96875 3.59375 -1.15625 3.59375 -1.375 C 3.59375 -1.726562 3.34375 -1.96875 2.84375 -2.09375 L 2 -2.28125 C 1.53125 -2.394531 1.1875 -2.566406 0.96875 -2.796875 C 0.75 -3.023438 0.640625 -3.316406 0.640625 -3.671875 C 0.640625 -3.953125 0.71875 -4.203125 0.875 -4.421875 C 1.039062 -4.648438 1.265625 -4.828125 1.546875 -4.953125 C 1.828125 -5.078125 2.148438 -5.140625 2.515625 -5.140625 C 3.015625 -5.140625 3.40625 -5.03125 3.6875 -4.8125 C 3.976562 -4.59375 4.1875 -4.300781 4.3125 -3.9375 Z M 4.3125 -3.9375 "/></g></g></g><g fill="#000000" fill-opacity="1"><g transform="translate(27.45954, 10.099058)"><g><path d="M 0.71875 0 L 0.71875 -5.078125 L 1.5 -5.078125 L 1.5 0 Z M 1.109375 -5.921875 C 0.953125 -5.921875 0.816406 -5.96875 0.703125 -6.0625 C 0.597656 -6.164062 0.546875 -6.289062 0.546875 -6.4375 C 0.546875 -6.582031 0.597656 -6.707031 0.703125 -6.8125 C 0.816406 -6.914062 0.953125 -6.96875 1.109375 -6.96875 C 1.265625 -6.96875 1.394531 -6.914062 1.5 -6.8125 C 1.601562 -6.707031 1.65625 -6.582031 1.65625 -6.4375 C 1.65625 -6.289062 1.601562 -6.164062 1.5 -6.0625 C 1.394531 -5.96875 1.265625 -5.921875 1.109375 -5.921875 Z M 1.109375 -5.921875 "/></g></g></g><g fill="#000000" fill-opacity="1"><g transform="translate(29.664652, 10.099058)"><g><path d="M 2.625 0.109375 C 2.207031 0.109375 1.832031 0.00390625 1.5 -0.203125 C 1.175781 -0.421875 0.921875 -0.726562 0.734375 -1.125 C 0.554688 -1.519531 0.46875 -1.984375 0.46875 -2.515625 C 0.46875 -3.054688 0.554688 -3.519531 0.734375 -3.90625 C 0.921875 -4.300781 1.175781 -4.601562 1.5 -4.8125 C 1.832031 -5.03125 2.210938 -5.140625 2.640625 -5.140625 C 2.972656 -5.140625 3.234375 -5.082031 3.421875 -4.96875 C 3.617188 -4.863281 3.765625 -4.738281 3.859375 -4.59375 C 3.960938 -4.457031 4.046875 -4.347656 4.109375 -4.265625 L 4.171875 -4.265625 L 4.171875 -6.765625 L 4.953125 -6.765625 L 4.953125 0 L 4.203125 0 L 4.203125 -0.78125 L 4.109375 -0.78125 C 4.046875 -0.6875 3.960938 -0.566406 3.859375 -0.421875 C 3.753906 -0.285156 3.601562 -0.160156 3.40625 -0.046875 C 3.207031 0.0546875 2.945312 0.109375 2.625 0.109375 Z M 2.734375 -0.59375 C 3.203125 -0.59375 3.5625 -0.769531 3.8125 -1.125 C 4.0625 -1.488281 4.1875 -1.957031 4.1875 -2.53125 C 4.1875 -3.101562 4.0625 -3.5625 3.8125 -3.90625 C 3.570312 -4.257812 3.210938 -4.4375 2.734375 -4.4375 C 2.398438 -4.4375 2.125 -4.351562 1.90625 -4.1875 C 1.6875 -4.019531 1.519531 -3.789062 1.40625 -3.5 C 1.300781 -3.207031 1.25 -2.882812 1.25 -2.53125 C 1.25 -2.175781 1.304688 -1.847656 1.421875 -1.546875 C 1.535156 -1.253906 1.703125 -1.019531 1.921875 -0.84375 C 2.140625 -0.675781 2.410156 -0.59375 2.734375 -0.59375 Z M 2.734375 -0.59375 "/></g></g></g><g fill="#000000" fill-opacity="1"><g transform="translate(35.434911, 10.099058)"><g><path d="M 2.84375 0.109375 C 2.351562 0.109375 1.929688 0 1.578125 -0.21875 C 1.222656 -0.4375 0.945312 -0.738281 0.75 -1.125 C 0.5625 -1.519531 0.46875 -1.976562 0.46875 -2.5 C 0.46875 -3.019531 0.5625 -3.476562 0.75 -3.875 C 0.945312 -4.269531 1.21875 -4.578125 1.5625 -4.796875 C 1.90625 -5.023438 2.304688 -5.140625 2.765625 -5.140625 C 3.023438 -5.140625 3.28125 -5.09375 3.53125 -5 C 3.789062 -4.914062 4.023438 -4.773438 4.234375 -4.578125 C 4.453125 -4.378906 4.625 -4.117188 4.75 -3.796875 C 4.875 -3.472656 4.9375 -3.070312 4.9375 -2.59375 L 4.9375 -2.265625 L 1.265625 -2.265625 C 1.273438 -1.722656 1.425781 -1.304688 1.71875 -1.015625 C 2.007812 -0.734375 2.382812 -0.59375 2.84375 -0.59375 C 3.144531 -0.59375 3.40625 -0.65625 3.625 -0.78125 C 3.84375 -0.914062 4.003906 -1.117188 4.109375 -1.390625 L 4.859375 -1.171875 C 4.742188 -0.785156 4.503906 -0.472656 4.140625 -0.234375 C 3.785156 -0.00390625 3.351562 0.109375 2.84375 0.109375 Z M 1.265625 -2.9375 L 4.140625 -2.9375 C 4.140625 -3.375 4.015625 -3.734375 3.765625 -4.015625 C 3.515625 -4.296875 3.179688 -4.4375 2.765625 -4.4375 C 2.460938 -4.4375 2.203125 -4.363281 1.984375 -4.21875 C 1.765625 -4.082031 1.59375 -3.898438 1.46875 -3.671875 C 1.34375 -3.453125 1.273438 -3.207031 1.265625 -2.9375 Z M 1.265625 -2.9375 "/></g></g></g><g fill="#0f3dfe" fill-opacity="1"><g transform="translate(40.849278, 10.099058)"><g><path d="M 3.109375 -7.078125 L 0.921875 1.015625 L 0.21875 1.015625 L 2.390625 -7.078125 Z M 3.109375 -7.078125 "/></g></g></g><g fill="#ff3131" fill-opacity="1"><g transform="translate(44.166203, 10.099058)"><g><path d="M 3.109375 -7.078125 L 0.921875 1.015625 L 0.21875 1.015625 L 2.390625 -7.078125 Z M 3.109375 -7.078125 "/></g></g></g><g fill="#000000" fill-opacity="1"><g transform="translate(47.483128, 10.099058)"><g><path d="M 2.625 0.109375 C 2.207031 0.109375 1.832031 0.00390625 1.5 -0.203125 C 1.175781 -0.421875 0.921875 -0.726562 0.734375 -1.125 C 0.554688 -1.519531 0.46875 -1.984375 0.46875 -2.515625 C 0.46875 -3.054688 0.554688 -3.519531 0.734375 -3.90625 C 0.921875 -4.300781 1.175781 -4.601562 1.5 -4.8125 C 1.832031 -5.03125 2.210938 -5.140625 2.640625 -5.140625 C 2.972656 -5.140625 3.234375 -5.082031 3.421875 -4.96875 C 3.617188 -4.863281 3.765625 -4.738281 3.859375 -4.59375 C 3.960938 -4.457031 4.046875 -4.347656 4.109375 -4.265625 L 4.171875 -4.265625 L 4.171875 -6.765625 L 4.953125 -6.765625 L 4.953125 0 L 4.203125 0 L 4.203125 -0.78125 L 4.109375 -0.78125 C 4.046875 -0.6875 3.960938 -0.566406 3.859375 -0.421875 C 3.753906 -0.285156 3.601562 -0.160156 3.40625 -0.046875 C 3.207031 0.0546875 2.945312 0.109375 2.625 0.109375 Z M 2.734375 -0.59375 C 3.203125 -0.59375 3.5625 -0.769531 3.8125 -1.125 C 4.0625 -1.488281 4.1875 -1.957031 4.1875 -2.53125 C 4.1875 -3.101562 4.0625 -3.5625 3.8125 -3.90625 C 3.570312 -4.257812 3.210938 -4.4375 2.734375 -4.4375 C 2.398438 -4.4375 2.125 -4.351562 1.90625 -4.1875 C 1.6875 -4.019531 1.519531 -3.789062 1.40625 -3.5 C 1.300781 -3.207031 1.25 -2.882812 1.25 -2.53125 C 1.25 -2.175781 1.304688 -1.847656 1.421875 -1.546875 C 1.535156 -1.253906 1.703125 -1.019531 1.921875 -0.84375 C 2.140625 -0.675781 2.410156 -0.59375 2.734375 -0.59375 Z M 2.734375 -0.59375 "/></g></g></g></g></g></svg>